HIERARCHY
ROOT Hips
{
 OFFSET 0.000000 0.000000 0.000000
 CHANNELS 6 Xposition Yposition Zposition Yrotation Xrotation Zrotation
 JOINT Chest
 {
  OFFSET 0.000000 9.585900 0.002600
  CHANNELS 3 Yrotation Xrotation Zrotation
  JOINT Chest2
  {
   OFFSET 0.000000 9.601200 -0.005300
   CHANNELS 3 Yrotation Xrotation Zrotation
   JOINT Chest3
   {
    OFFSET 0.000000 9.561800 0.000000
    CHANNELS 3 Yrotation Xrotation Zrotation
    JOINT Chest4
    {
     OFFSET 0.000000 9.552100 0.000000
     CHANNELS 3 Yrotation Xrotation Zrotation
     JOINT Neck
     {
      OFFSET 0.000000 14.453000 0.000000
      CHANNELS 3 Yrotation Xrotation Zrotation
      JOINT Head
      {
       OFFSET 0.000000 8.936500 -0.011300
       CHANNELS 3 Yrotation Xrotation Zrotation
       End Site
       {
        OFFSET 0.000000 17.073600 -0.006000
       }
      }
     }
     JOINT RightCollar
     {
      OFFSET -2.921100 9.558500 0.000000
      CHANNELS 3 Yrotation Xrotation Zrotation
      JOINT RightShoulder
      {
       OFFSET -13.519700 0.000000 0.000000
       CHANNELS 3 Yrotation Xrotation Zrotation
       JOINT RightElbow
       {
        OFFSET 0.000000 -29.696600 0.000000
        CHANNELS 3 Yrotation Xrotation Zrotation
        JOINT RightWrist
        {
         OFFSET 0.000000 -24.004700 0.000000
         CHANNELS 3 Yrotation Xrotation Zrotation
         End Site
         {
          OFFSET 0.000000 -17.728500 0.000000
         }
        }
       }
      }
     }
     JOINT LeftCollar
     {
      OFFSET 2.921100 9.558500 0.000000
      CHANNELS 3 Yrotation Xrotation Zrotation
      JOINT LeftShoulder
      {
       OFFSET 13.519700 0.000000 0.000000
       CHANNELS 3 Yrotation Xrotation Zrotation
       JOINT LeftElbow
       {
        OFFSET 0.000000 -29.696600 0.000000
        CHANNELS 3 Yrotation Xrotation Zrotation
        JOINT LeftWrist
        {
         OFFSET 0.000000 -24.004700 0.000000
         CHANNELS 3 Yrotation Xrotation Zrotation
         End Site
         {
          OFFSET 0.000000 -17.728500 0.000000
         }
        }
       }
      }
     }
    }
   }
  }
 }
 JOINT RightHip
 {
  OFFSET -7.771700 -0.012900 -0.001300
  CHANNELS 3 Yrotation Xrotation Zrotation
  JOINT RightKnee
  {
   OFFSET 0.000000 -40.869800 0.001200
   CHANNELS 3 Yrotation Xrotation Zrotation
   JOINT RightAnkle
   {
    OFFSET 0.000000 -39.717900 0.002100
    CHANNELS 3 Yrotation Xrotation Zrotation
    JOINT RightToe
    {
     OFFSET 0.000000 -4.965400 11.033500
     CHANNELS 3 Yrotation Xrotation Zrotation
     End Site
     {
      OFFSET 0.000000 -1.423100 5.872300
     }
    }
   }
  }
 }
 JOINT LeftHip
 {
  OFFSET 7.771700 -0.012900 -0.001300
  CHANNELS 3 Yrotation Xrotation Zrotation
  JOINT LeftKnee
  {
   OFFSET 0.000000 -40.869800 0.001200
   CHANNELS 3 Yrotation Xrotation Zrotation
   JOINT LeftAnkle
   {
    OFFSET 0.000000 -39.717900 0.002100
    CHANNELS 3 Yrotation Xrotation Zrotation
    JOINT LeftToe
    {
     OFFSET 0.000000 -4.965400 11.033500
     CHANNELS 3 Yrotation Xrotation Zrotation
     End Site
     {
      OFFSET 0.000000 -1.423100 5.872300
     }
    }
   }
  }
 }
}
MOTION
Frames: 9
Frame Time: 0.008333
-205.693634 57.940601 27.046115 172.242449 -44.594289 -2.871798 5.005618 19.720903 2.939064 2.636356 11.306205 1.521786 3.362095 14.102497 2.009642 2.634185 11.304921 1.520049 1.262371 14.528447 3.566784 1.012409 -8.785374 6.207366 0.636627 1.308731 -0.298987 3.516000 -10.280112 -8.827614 -57.393713 -59.885621 101.379513 1.778543 8.940098 -28.900801 -8.756203 -2.376271 -0.848671 0.846513 -8.448867 13.306615 36.574838 -30.920408 -98.314415 15.198712 -2.884453 17.186726 4.813795 -27.852473 -0.862691 -39.132881 73.674196 -41.043045 5.282738 -13.065930 9.934026 0.016155 -0.169853 0.017839 -3.560446 -26.397536 10.987442 54.880015 79.329849 54.674642 5.055721 -15.954708 -17.048726 0.070741 0.138574 0.029458
-205.695168 57.940639 27.044663 172.241175 -44.586407 -2.868254 5.004535 19.711760 2.944658 2.636547 11.292892 1.537078 3.356993 14.103571 2.000526 2.629088 11.314398 1.510141 1.219386 14.431120 3.496930 0.946006 -8.936221 6.075916 0.641009 1.311278 -0.306503 3.513424 -10.276884 -8.821957 -57.392840 -59.884520 101.379135 1.775874 8.940874 -28.896575 -8.755974 -2.374897 -0.841506 0.845424 -8.453641 13.310379 36.561746 -30.921207 -98.304869 15.210120 -2.892906 17.173169 4.818439 -27.859738 -0.866515 -39.139077 73.674575 -41.047041 5.264263 -13.069478 9.937707 0.019257 -0.166647 0.014847 -3.558107 -26.405575 10.984085 54.884987 79.329446 54.681962 5.055326 -15.956976 -17.056556 0.070943 0.137280 0.034383
-205.696885 57.940363 27.043516 172.245854 -44.574291 -2.868958 5.000140 19.700423 2.951703 2.635790 11.288022 1.538758 3.356344 14.096163 2.003744 2.625270 11.305108 1.511971 1.170015 14.361020 3.414871 0.875997 -9.072688 5.943167 0.642833 1.330246 -0.324687 3.507770 -10.273321 -8.815060 -57.391667 -59.880625 101.400518 1.773097 8.941665 -28.905248 -8.758754 -2.357956 -0.849505 0.845860 -8.452822 13.304980 36.557538 -30.922180 -98.302038 15.196739 -2.875162 17.167055 4.818352 -27.869898 -0.867233 -39.141418 73.675829 -41.053205 5.253723 -13.075693 9.942244 0.014238 -0.167082 0.012674 -3.559433 -26.419889 10.979157 54.901087 79.329432 54.701378 5.058218 -15.957492 -17.059752 0.071763 0.136016 0.034884
-205.698658 57.940169 27.042321 172.244336 -44.561839 -2.865907 4.999399 19.689747 2.959231 2.635772 11.283583 1.539126 3.355719 14.089443 2.007280 2.626395 11.298041 1.515337 1.115508 14.299372 3.332773 0.805733 -9.190134 5.810831 0.643575 1.336118 -0.341003 3.501623 -10.257525 -8.807589 -57.396307 -59.886061 101.420328 1.761087 8.937676 -28.917016 -8.771094 -2.345322 -0.841052 0.855302 -8.458267 13.305248 36.549030 -30.922074 -98.308222 15.198323 -2.875270 17.156337 4.821132 -27.881172 -0.869733 -39.137214 73.677012 -41.051622 5.248396 -13.079195 9.944722 0.015086 -0.166670 0.012332 -3.558479 -26.433191 10.973518 54.920325 79.326312 54.722793 5.065082 -15.958499 -17.063367 0.072089 0.135873 0.034416
-205.701277 57.940205 27.040752 172.247633 -44.550647 -2.861763 4.995929 19.685161 2.966850 2.631431 11.277049 1.532109 3.354796 14.086550 2.005953 2.633831 11.274004 1.539213 1.064850 14.276310 3.254541 0.732229 -9.299047 5.666392 0.646428 1.351957 -0.367586 3.488751 -10.243385 -8.807249 -57.408409 -59.884460 101.442525 1.757707 8.945063 -28.910403 -8.779604 -2.321509 -0.852660 0.857495 -8.449366 13.332761 36.564371 -30.915613 -98.345725 15.197211 -2.870760 17.141360 4.822371 -27.891271 -0.876847 -39.139974 73.679650 -41.059382 5.240735 -13.083244 9.950616 0.016884 -0.167446 0.011102 -3.555543 -26.445754 10.961894 54.941571 79.325504 54.743819 5.075420 -15.963087 -17.061419 0.067908 0.137795 0.032236
-205.704049 57.939748 27.039726 172.245978 -44.534852 -2.854248 4.993719 19.674298 2.964437 2.630066 11.272933 1.528913 3.354631 14.083776 2.009905 2.634676 11.268060 1.542831 1.048526 14.269795 3.228139 0.649470 -9.406775 5.497578 0.652663 1.348481 -0.374852 3.481768 -10.229292 -8.809660 -57.435114 -59.887436 101.491892 1.746859 8.954589 -28.907423 -8.781886 -2.321224 -0.846631 0.858716 -8.434756 13.336130 36.565789 -30.924751 -98.355841 15.198639 -2.866666 17.131752 4.827310 -27.906196 -0.884105 -39.144322 73.679384 -41.064894 5.230974 -13.086185 9.951057 0.021926 -0.165729 0.012709 -3.545522 -26.464151 10.947958 54.948621 79.322156 54.755663 5.081641 -15.962674 -17.059152 0.064092 0.138435 0.030476
-205.705410 57.940150 27.038089 172.253473 -44.526078 -2.861149 4.987977 19.669574 2.968626 2.631677 11.269027 1.532024 3.353681 14.079326 2.012064 2.632176 11.264804 1.542465 1.003401 14.229906 3.153093 0.591327 -9.443929 5.378445 0.680688 1.336916 -0.377751 3.460477 -10.204208 -8.810757 -57.464690 -59.887427 101.532471 1.742347 8.964444 -28.920738 -8.787864 -2.339663 -0.829225 0.868039 -8.396742 13.329153 36.568844 -30.939299 -98.371930 15.188924 -2.853933 17.124304 4.821071 -27.909713 -0.877966 -39.138057 73.675252 -41.062550 5.218868 -13.091294 9.954398 0.027573 -0.161261 0.013930 -3.552651 -26.474585 10.947402 54.948123 79.329456 54.757122 5.089083 -15.964341 -17.060120 0.066986 0.136240 0.030370
-205.708018 57.938885 27.037861 172.252933 -44.504603 -2.855738 4.984449 19.650142 2.962273 2.630866 11.269200 1.536159 3.353211 14.073961 2.012654 2.632410 11.261251 1.543296 0.928678 14.188216 3.031831 0.558966 -9.444900 5.303791 0.687911 1.339494 -0.384858 3.460820 -10.192139 -8.812097 -57.497984 -59.883756 101.576512 1.729752 8.975336 -28.934572 -8.793843 -2.348928 -0.824560 0.876266 -8.373092 13.325735 36.554929 -30.965452 -98.386311 15.203764 -2.867242 17.125808 4.824432 -27.930050 -0.884549 -39.145227 73.673611 -41.077708 5.232914 -13.098585 9.958981 0.019413 -0.158714 0.014409 -3.555010 -26.498935 10.940177 54.963908 79.330340 54.772472 5.091244 -15.962571 -17.061131 0.048092 0.132962 0.028275
-205.710150 57.938389 27.036785 172.255970 -44.491083 -2.854015 4.978645 19.640156 2.961231 2.630366 11.265957 1.536686 3.354803 14.067719 2.020206 2.629166 11.263478 1.536290 0.877736 14.176300 2.947561 0.514456 -9.449777 5.203110 0.692758 1.340877 -0.390546 3.469990 -10.175881 -8.815672 -57.547620 -59.879934 101.629679 1.708495 8.988131 -28.943520 -8.796797 -2.348689 -0.827530 0.881185 -8.360075 13.331791 36.556028 -30.976249 -98.408299 15.205294 -2.860651 17.119729 4.826000 -27.942899 -0.890528 -39.147024 73.674704 -41.078763 5.225714 -13.100455 9.955532 0.016803 -0.158865 0.016970 -3.559717 -26.514205 10.935167 54.969168 79.333452 54.778094 5.086032 -15.962499 -17.058892 0.055373 0.129716 0.026401
